<svg xmlns="http://www.w3.org/2000/svg" width="15" height="11" viewBox="0 0 15 11">
    <defs>
        <filter id="mj575bqc2a">
            <feColorMatrix in="SourceGraphic" values="0 0 0 0 1.000000 0 0 0 0 1.000000 0 0 0 0 1.000000 0 0 0 1.000000 0"/>
        </filter>
    </defs>
    <g fill="none" fill-rule="evenodd">
        <g>
            <g>
                <g>
                    <g filter="url(#mj575bqc2a)" transform="translate(-216 -1057) translate(16 871) translate(180 44) translate(12 132)">
                        <g fill="#000" fill-rule="nonzero">
                            <path d="M4.963 10.588H2.647C1.185 10.588 0 9.403 0 7.941V2.647C0 1.185 1.185 0 2.647 0h2.316c.183 0 .331.148.331.33v1.104c0 .183-.148.33-.33.33H2.646c-.487 0-.882.396-.882.883v5.294c0 .487.395.883.882.883h2.316c.183 0 .331.148.331.33v1.103c0 .183-.148.331-.33.331z" opacity=".4" transform="translate(8 10)"/>
                            <path d="M9.733.67l4.189 4.153c.125.124.196.293.196.47 0 .176-.07.346-.196.47L9.73 9.92c-.26.256-.677.254-.935-.003l-.604-.604c-.127-.128-.197-.302-.193-.483.005-.18.082-.351.215-.473l2.14-1.96h-5.28c-.176 0-.345-.07-.469-.194s-.194-.293-.193-.469v-.882c0-.176.069-.344.193-.468.124-.125.293-.194.469-.194h5.28l-2.14-1.96c-.132-.122-.209-.293-.213-.473-.003-.18.067-.354.194-.481l.604-.604c.257-.259.675-.26.934-.003z" transform="translate(8 10)"/>
                        </g>
                    </g>
                </g>
            </g>
        </g>
    </g>
</svg>
